<?xml version="1.0" encoding="utf-8"?>
<svg version="1.2" baseProfile="tiny" id="add_frame_-_copie_1_"
	 xmlns="http://www.w3.org/2000/svg" xmlns:xlink="http://www.w3.org/1999/xlink" x="0px" y="0px" width="34px" height="34px"
	 viewBox="-280.5 437.5 34 34" xml:space="preserve">
<path fill="#FFFFFF" d="M-250.5,441.439h-17.738v4.248h-4.128v4.134h-4.134v17.739h17.738v-4.136h4.134v-4.246h4.128V441.439z
	 M-260.807,465.515h-13.648v-13.648h2.089v11.56h11.56V465.515L-260.807,465.515z M-256.673,461.38h-13.648v-13.647h2.083v11.444
	h11.565V461.38z M-252.545,457.132h-13.648v-13.648h13.648V457.132z"/>
<polygon fill="#FFFFFF" points="-255.828,449.34 -258.4,449.34 -258.4,446.767 -260.337,446.767 -260.337,449.34 -262.91,449.34 
	-262.91,451.278 -260.337,451.278 -260.337,453.849 -258.4,453.849 -258.4,451.278 -255.828,451.278 "/>
</svg>
