<svg version="1.2" baseProfile="tiny" xmlns="http://www.w3.org/2000/svg" xmlns:xlink="http://www.w3.org/1999/xlink" x="0" y="0" width="34" height="34" viewBox="0 0 34 34" xml:space="preserve">
  <g id="adjust">
    <path fill="#FFFFFF" d="M26.04 4.89v13.91c-1.27 0-2.29 1.03-2.29 2.29l0 2.29c0 1.27 1.03 2.29 2.29 2.29v3.44c0 0.63 0.51 1.15 1.15 1.15 0.63 0 1.15-0.52 1.15-1.15v-3.44c1.27 0 2.29-1.03 2.29-2.29v-2.29c0-1.27-1.03-2.29-2.29-2.29V4.89c0-0.63-0.51-1.15-1.15-1.15C26.55 3.75 26.04 4.26 26.04 4.89zM28.33 21.1l0 2.29h-2.29v-2.29H28.33z"/>
    <path fill="#FFFFFF" d="M18.16 29.12l0-13.91c1.27 0 2.29-1.03 2.29-2.29v-2.29c0-1.27-1.03-2.29-2.29-2.29v-3.44c0-0.63-0.51-1.15-1.15-1.15 -0.63 0-1.15 0.51-1.15 1.15v3.44c-1.27 0-2.29 1.03-2.29 2.29l0 2.29c0 1.27 1.03 2.29 2.29 2.29v13.91c0 0.63 0.51 1.15 1.15 1.15C17.64 30.27 18.16 29.75 18.16 29.12zM15.86 12.92v-2.29h2.29v2.29H15.86L15.86 12.92z"/>
    <path fill="#FFFFFF" d="M7.98 29.12v-8.03c1.27 0 2.29-1.03 2.29-2.29v-2.29c0-1.27-1.03-2.29-2.29-2.29l0-9.32c0-0.63-0.52-1.15-1.15-1.15 -0.63 0-1.15 0.51-1.15 1.15v9.32c-1.27 0-2.29 1.03-2.29 2.29v2.29c0 1.27 1.03 2.29 2.29 2.29v8.03c0 0.63 0.52 1.15 1.15 1.15C7.47 30.27 7.98 29.75 7.98 29.12zM5.69 18.8v-2.29h2.29v2.29H5.69z"/>
  </g>
</svg>
