<svg xmlns="http://www.w3.org/2000/svg" xmlns:xlink="http://www.w3.org/1999/xlink" version="1.2" baseProfile="tiny" x="0" y="0" width="34" height="34" viewBox="0 0 34 34" xml:space="preserve">
  <g id="close">
    <path fill="#FFFFFF" d="M23.29 7.91c-0.15-0.15-0.39-0.15-0.54 0l-5.48 5.48c-0.15 0.15-0.39 0.15-0.54 0l-5.48-5.48c-0.15-0.15-0.39-0.15-0.54 0l-2.82 2.82c-0.15 0.15-0.15 0.39 0 0.54l5.48 5.48c0.15 0.15 0.15 0.39 0 0.54l-5.48 5.48c-0.15 0.15-0.15 0.39 0 0.54l2.82 2.82c0.15 0.15 0.39 0.15 0.54 0l5.48-5.48c0.15-0.15 0.39-0.15 0.54 0l5.48 5.48c0.15 0.15 0.39 0.15 0.54 0l2.82-2.82c0.15-0.15 0.15-0.39 0-0.54l-5.48-5.48c-0.15-0.15-0.15-0.39 0-0.54l5.48-5.48c0.15-0.15 0.15-0.39 0-0.54L23.29 7.91z"/>
  </g>
</svg>
