<svg version="1.2" baseProfile="tiny" xmlns="http://www.w3.org/2000/svg" xmlns:xlink="http://www.w3.org/1999/xlink" x="0" y="0" width="34" height="34" viewBox="0 0 34 34" xml:space="preserve">
  <g id="embed">
    <path display="inline" fill="#FFFFFF" d="M4.09 18.14v-2.27l7.45-4.34v2.84l-4.79 2.6v0.04l4.79 2.47v3.01L4.09 18.14z"/>
    <path display="inline" fill="#FFFFFF" d="M29.33 14.9v2.27l-7.45 4.35v-2.84l4.79-2.6v-0.04l-4.79-2.47v-3.01L29.33 14.9z"/>
    <path display="inline" fill="#FFFFFF" d="M18.57 9.29c0.02-0.12 0.08-0.18 0.18-0.18h2.75c0.08 0 0.14 0.1 0.14 0.18L14.99 23.88c-0.02 0.12-0.1 0.18-0.22 0.18h-2.69c-0.1 0-0.14-0.1-0.12-0.22L18.57 9.29z"/>
  </g>
</svg>
