<svg xmlns="http://www.w3.org/2000/svg" xmlns:xlink="http://www.w3.org/1999/xlink" version="1.2" baseProfile="tiny" x="0" y="0" width="34.02" height="34.02" viewBox="0 0 34.02 34.02" xml:space="preserve">
  <g id="logo">
    <path fill="#B7B7B8" d="M31.02 12.67l-9.26-9.26L7.56 6.39 4.92 23.55l7.42 7.42c1.1 1.1 3.28 2 4.84 2h13.01c1.56 0 2.83-1.27 2.83-2.83V17.51C33.02 15.95 32.12 13.78 31.02 12.67z"/>
    <path fill="#FFFFFF" d="M26.94 10.98H16.64v5.69h3.31c-0.97 2.22-3.18 3.8-5.76 3.8 -3.44 0-6.25-2.84-6.25-6.29 0-3.48 2.81-6.29 6.25-6.29 0.91 0 1.78 0.2 2.56 0.55l5.01-5.01C19.61 1.9 17 1 14.18 1 6.91 1 1.04 6.94 1.04 14.21c0 7.27 5.87 13.14 13.14 13.14 7.27 0 13.17-5.87 13.17-13.14C27.35 13.09 27.2 12.01 26.94 10.98z"/>
  </g>
</svg>
