<svg xmlns="http://www.w3.org/2000/svg" xmlns:xlink="http://www.w3.org/1999/xlink" version="1.1" id="Calque_1" x="0" y="0" width="34" height="34" viewBox="0 0 34 34" enable-background="new 0 0 34 34" xml:space="preserve">
  <g id="google">
    <path fill="#FFFFFF" d="M12.9 15.97v2.49h4.12c-0.17 1.07-1.25 3.13-4.12 3.13 -2.48 0-4.5-2.06-4.5-4.59 0-2.53 2.02-4.59 4.5-4.59 1.41 0 2.36 0.6 2.9 1.12l1.97-1.9c-1.27-1.18-2.91-1.9-4.87-1.9 -4.02 0-7.26 3.25-7.26 7.26 0 4.02 3.25 7.26 7.26 7.26 4.19 0 6.97-2.95 6.97-7.1 0-0.48-0.05-0.84-0.11-1.2L12.9 15.97 12.9 15.97z"/>
    <path fill="#FFFFFF" d="M28.47 15.97h-2.07v-2.08h-2.08v2.08h-2.07v2.08h2.07v2.08h2.08v-2.08h2.07"/>
  </g>
</svg>
