<svg version="1.2" baseProfile="tiny" xmlns="http://www.w3.org/2000/svg" xmlns:xlink="http://www.w3.org/1999/xlink" x="0" y="0" width="34" height="34" viewBox="0 0 34 34" xml:space="preserve">
  <g id="link">
    <path display="inline" fill="#FFFFFF" d="M24.64 16.16l-3.39 3.39c-1.87 1.88-4.91 1.88-6.78 0 -0.29-0.29-0.52-0.62-0.73-0.97l1.58-1.58c0.08-0.08 0.17-0.12 0.26-0.17 0.11 0.37 0.3 0.72 0.59 1.02 0.94 0.94 2.46 0.94 3.39 0l3.39-3.39c0.94-0.94 0.94-2.46 0-3.39 -0.93-0.93-2.46-0.93-3.39 0l-1.21 1.21c-0.98-0.38-2.03-0.48-3.06-0.33l2.57-2.57c1.87-1.87 4.91-1.87 6.78 0C26.51 11.25 26.51 14.29 24.64 16.16zM15.67 21.74l-1.21 1.21c-0.93 0.94-2.46 0.94-3.39 0s-0.93-2.46 0-3.39l3.39-3.39c0.94-0.94 2.46-0.94 3.39 0 0.29 0.29 0.48 0.65 0.59 1.02 0.09-0.05 0.18-0.09 0.26-0.17l1.58-1.58c-0.2-0.34-0.43-0.67-0.73-0.97 -1.87-1.87-4.91-1.87-6.78 0l-3.39 3.39c-1.87 1.87-1.87 4.91 0 6.78 1.87 1.87 4.91 1.87 6.78 0l2.57-2.57C17.7 22.22 16.65 22.12 15.67 21.74z"/>
  </g>
</svg>
