<?xml version="1.0" encoding="utf-8"?>
<!DOCTYPE svg PUBLIC "-//W3C//DTD SVG 1.1//EN" "http://www.w3.org/Graphics/SVG/1.1/DTD/svg11.dtd">
<svg version="1.1" id="Calque_1" xmlns="http://www.w3.org/2000/svg" xmlns:xlink="http://www.w3.org/1999/xlink" x="0px" y="0px"
	 width="34px" height="34px" viewBox="0 0 34 34" enable-background="new 0 0 34 34" xml:space="preserve">
<g id="facebook">
	<path fill="#FFFFFF" d="M12.909,14.131h1.758v-1.709c0-0.754,0.019-1.916,0.566-2.636c0.577-0.763,1.368-1.281,2.729-1.281
		c2.218,0,3.152,0.316,3.152,0.316l-0.438,2.604c0,0-0.733-0.212-1.417-0.212c-0.685,0-1.296,0.245-1.296,0.929v1.987h2.804
		l-0.196,2.545h-2.608v8.84h-3.296v-8.84h-1.758v-2.544H12.909z"/>
</g>
<g id="twitter_1_">
	<path fill="#FFFFFF" d="M25.557,12.555c-0.625,0.278-1.301,0.466-2.006,0.551c0.721-0.433,1.275-1.118,1.536-1.934
		c-0.676,0.4-1.423,0.69-2.22,0.847c-0.637-0.679-1.545-1.104-2.551-1.104c-1.93,0-3.495,1.566-3.495,3.496
		c0,0.274,0.03,0.54,0.09,0.796c-2.905-0.146-5.479-1.536-7.205-3.653c-0.301,0.52-0.473,1.119-0.473,1.76
		c0,1.211,0.617,2.282,1.555,2.909c-0.573-0.018-1.112-0.176-1.584-0.437v0.043c0,1.694,1.205,3.106,2.805,3.428
		c-0.293,0.082-0.603,0.123-0.921,0.123c-0.225,0-0.445-0.021-0.657-0.062c0.444,1.388,1.735,2.398,3.265,2.427
		c-1.196,0.938-2.704,1.496-4.341,1.496c-0.282,0-0.561-0.017-0.834-0.048c1.547,0.99,3.384,1.569,5.358,1.569
		c6.431,0,9.944-5.325,9.944-9.947c0-0.151-0.002-0.303-0.008-0.452C24.496,13.872,25.089,13.256,25.557,12.555"/>
</g>
<g id="google_1_">
	<g>
		<path fill="#FFFFFF" d="M12.902,15.972v2.49h4.121c-0.168,1.068-1.246,3.134-4.121,3.134c-2.479,0-4.502-2.056-4.502-4.586
			c0-2.531,2.022-4.587,4.502-4.587c1.412,0,2.355,0.603,2.896,1.121l1.972-1.899c-1.267-1.183-2.906-1.898-4.867-1.898
			c-4.016,0-7.262,3.249-7.262,7.264c0,4.018,3.248,7.263,7.262,7.263c4.193,0,6.974-2.946,6.974-7.097
			c0-0.477-0.052-0.842-0.114-1.204L12.902,15.972L12.902,15.972z"/>
		<path fill="#FFFFFF" d="M28.467,15.972h-2.074v-2.075h-2.076v2.075h-2.074v2.075h2.074v2.075h2.076v-2.075h2.074"/>
	</g>
</g>
</svg>