<svg xmlns="http://www.w3.org/2000/svg" xmlns:xlink="http://www.w3.org/1999/xlink" version="1.2" baseProfile="tiny" x="0" y="0" width="34" height="34" viewBox="0 0 34 34" xml:space="preserve">
  <g id="switchcamera">
    <path fill="#FFFFFF" d="M24.49 9.03c-0.42-0.42-0.93-0.63-1.53-0.63h-1.89l-0.43-1.15c-0.11-0.28-0.3-0.51-0.59-0.71 -0.28-0.2-0.58-0.3-0.87-0.3h-4.33c-0.3 0-0.59 0.1-0.87 0.3 -0.28 0.2-0.48 0.44-0.59 0.72l-0.43 1.15h-1.89c-0.6 0-1.11 0.21-1.53 0.63C9.1 9.45 8.89 9.96 8.89 10.56v6.54c0 0.6 0.21 1.11 0.64 1.53 0.42 0.42 0.93 0.64 1.53 0.64h11.91c0.6 0 1.11-0.21 1.53-0.63 0.42-0.42 0.64-0.93 0.64-1.53v-6.54C25.13 9.96 24.92 9.45 24.49 9.03zM19.68 16.45c-0.74 0.74-1.63 1.11-2.68 1.11s-1.94-0.37-2.68-1.11c-0.74-0.74-1.11-1.63-1.11-2.68 0-1.04 0.37-1.94 1.11-2.68 0.74-0.74 1.63-1.11 2.68-1.11s1.94 0.37 2.68 1.11c0.74 0.74 1.11 1.63 1.11 2.68C20.8 14.81 20.43 15.71 19.68 16.45z"/>
    <path fill="#FFFFFF" d="M17.01 11.58c-0.6 0-1.12 0.22-1.55 0.64 -0.43 0.43-0.64 0.95-0.64 1.55 0 0.6 0.21 1.12 0.64 1.55 0.43 0.43 0.95 0.64 1.55 0.64 0.6 0 1.12-0.21 1.55-0.64 0.43-0.43 0.64-0.94 0.64-1.55 0-0.6-0.21-1.12-0.64-1.55C18.13 11.79 17.61 11.58 17.01 11.58z"/>
    <path fill="#FFFFFF" d="M3.36 19.27c0-0.01 0-0.01 0-0.02 0-1.35 1.33-2.75 3.64-3.83v-1.68C3.8 15.06 1.8 17.02 1.8 19.24c0 0.01 0 0.02 0 0.02H3.36z"/>
    <path fill="#FFFFFF" d="M27.02 13.73v1.68c2.31 1.08 3.64 2.48 3.64 3.83 0 2.76-5.48 5.72-13.65 5.72v1.56c8.53 0 15.21-3.2 15.21-7.27C32.22 17.02 30.22 15.06 27.02 13.73z"/>
    <path fill="#FFFFFF" d="M20.32 28.37c0 0.78-0.49 1.01-1.1 0.52l-2.83-2.31c-0.6-0.49-0.6-1.3 0-1.79l2.84-2.31c0.6-0.49 1.1-0.26 1.1 0.52V28.37z"/>
  </g>
</svg>
