<svg xmlns="http://www.w3.org/2000/svg" xmlns:xlink="http://www.w3.org/1999/xlink" version="1.1" id="Calque_1" x="0" y="0" width="34" height="34" viewBox="0 0 34 34" enable-background="new 0 0 34 34" xml:space="preserve">
  <g id="twitter_1_">
    <path fill="#FFFFFF" d="M25.56 12.56c-0.62 0.28-1.3 0.47-2.01 0.55 0.72-0.43 1.27-1.12 1.54-1.93 -0.68 0.4-1.42 0.69-2.22 0.85 -0.64-0.68-1.54-1.1-2.55-1.1 -1.93 0-3.49 1.57-3.49 3.5 0 0.27 0.03 0.54 0.09 0.8 -2.9-0.15-5.48-1.54-7.2-3.65 -0.3 0.52-0.47 1.12-0.47 1.76 0 1.21 0.62 2.28 1.56 2.91 -0.57-0.02-1.11-0.18-1.58-0.44v0.04c0 1.69 1.21 3.11 2.81 3.43 -0.29 0.08-0.6 0.12-0.92 0.12 -0.22 0-0.44-0.02-0.66-0.06 0.44 1.39 1.74 2.4 3.27 2.43 -1.2 0.94-2.7 1.5-4.34 1.5 -0.28 0-0.56-0.02-0.83-0.05 1.55 0.99 3.38 1.57 5.36 1.57 6.43 0 9.94-5.32 9.94-9.95 0-0.15 0-0.3-0.01-0.45C24.5 13.87 25.09 13.26 25.56 12.56"/>
  </g>
</svg>
